<svg width="50" height="51" viewBox="0 0 50 51" fill="none" xmlns="http://www.w3.org/2000/svg">
<rect y="0.666672" width="50" height="50" rx="10" fill="white"/>
<path d="M24.5386 18.2249H19.0542V33.4359H16.8159V18.2249H11.3433V16.3734H24.5386V18.2249ZM31.9097 25.8304C29.98 25.2757 28.5737 24.596 27.6909 23.7913C26.8159 22.9788 26.3784 21.9788 26.3784 20.7913C26.3784 19.4476 26.9136 18.3382 27.9839 17.4632C29.062 16.5804 30.4604 16.139 32.1792 16.139C33.3511 16.139 34.394 16.3655 35.3081 16.8187C36.23 17.2718 36.9409 17.8968 37.4409 18.6937C37.9487 19.4905 38.2026 20.3616 38.2026 21.3069H35.9409C35.9409 20.2757 35.6128 19.4671 34.9565 18.8812C34.3003 18.2874 33.3745 17.9905 32.1792 17.9905C31.0698 17.9905 30.2026 18.2366 29.5776 18.7288C28.9604 19.2132 28.6519 19.889 28.6519 20.7562C28.6519 21.4515 28.9448 22.0413 29.5308 22.5257C30.1245 23.0023 31.1284 23.4398 32.5425 23.8382C33.9644 24.2366 35.0737 24.678 35.8706 25.1624C36.6753 25.639 37.269 26.1976 37.6519 26.8382C38.0425 27.4788 38.2378 28.2327 38.2378 29.0999C38.2378 30.4827 37.6987 31.5921 36.6206 32.428C35.5425 33.2562 34.1011 33.6702 32.2964 33.6702C31.1245 33.6702 30.0308 33.4476 29.0151 33.0023C27.9995 32.5491 27.2144 31.9319 26.6597 31.1507C26.1128 30.3694 25.8394 29.4827 25.8394 28.4905H28.1011C28.1011 29.5218 28.48 30.3382 29.2378 30.9398C30.0034 31.5335 31.0229 31.8304 32.2964 31.8304C33.4839 31.8304 34.394 31.5882 35.0269 31.1038C35.6597 30.6194 35.9761 29.9593 35.9761 29.1234C35.9761 28.2874 35.6831 27.6429 35.0972 27.1898C34.5112 26.7288 33.4487 26.2757 31.9097 25.8304Z" fill="black"/>
</svg>
