<svg width="262" height="51" viewBox="0 0 262 51" fill="none" xmlns="http://www.w3.org/2000/svg">
<rect y="0.666672" width="50" height="50" rx="10" fill="white"/>
<path d="M24.5386 18.2249H19.0542V33.4359H16.8159V18.2249H11.3433V16.3734H24.5386V18.2249ZM31.9097 25.8304C29.98 25.2757 28.5737 24.596 27.6909 23.7913C26.8159 22.9788 26.3784 21.9788 26.3784 20.7913C26.3784 19.4476 26.9136 18.3382 27.9839 17.4632C29.062 16.5804 30.4604 16.139 32.1792 16.139C33.3511 16.139 34.394 16.3655 35.3081 16.8187C36.23 17.2718 36.9409 17.8968 37.4409 18.6937C37.9487 19.4905 38.2026 20.3616 38.2026 21.3069H35.9409C35.9409 20.2757 35.6128 19.4671 34.9565 18.8812C34.3003 18.2874 33.3745 17.9905 32.1792 17.9905C31.0698 17.9905 30.2026 18.2366 29.5776 18.7288C28.9604 19.2132 28.6519 19.889 28.6519 20.7562C28.6519 21.4515 28.9448 22.0413 29.5308 22.5257C30.1245 23.0023 31.1284 23.4398 32.5425 23.8382C33.9644 24.2366 35.0737 24.678 35.8706 25.1624C36.6753 25.639 37.269 26.1976 37.6519 26.8382C38.0425 27.4788 38.2378 28.2327 38.2378 29.0999C38.2378 30.4827 37.6987 31.5921 36.6206 32.428C35.5425 33.2562 34.1011 33.6702 32.2964 33.6702C31.1245 33.6702 30.0308 33.4476 29.0151 33.0023C27.9995 32.5491 27.2144 31.9319 26.6597 31.1507C26.1128 30.3694 25.8394 29.4827 25.8394 28.4905H28.1011C28.1011 29.5218 28.48 30.3382 29.2378 30.9398C30.0034 31.5335 31.0229 31.8304 32.2964 31.8304C33.4839 31.8304 34.394 31.5882 35.0269 31.1038C35.6597 30.6194 35.9761 29.9593 35.9761 29.1234C35.9761 28.2874 35.6831 27.6429 35.0972 27.1898C34.5112 26.7288 33.4487 26.2757 31.9097 25.8304Z" fill="black"/>
<path d="M77.7695 17.4557H72.2852V32.6667H70.0469V17.4557H64.5742V15.6042H77.7695V17.4557ZM84.0508 32.901C82.332 32.901 80.9336 32.3385 79.8555 31.2135C78.7773 30.0807 78.2383 28.569 78.2383 26.6784V26.28C78.2383 25.0221 78.4766 23.901 78.9531 22.9167C79.4375 21.9245 80.1094 21.151 80.9688 20.5964C81.8359 20.0339 82.7734 19.7526 83.7812 19.7526C85.4297 19.7526 86.7109 20.2956 87.625 21.3815C88.5391 22.4675 88.9961 24.0221 88.9961 26.0456V26.9479H80.4062C80.4375 28.1979 80.8008 29.2096 81.4961 29.9831C82.1992 30.7487 83.0898 31.1315 84.168 31.1315C84.9336 31.1315 85.582 30.9753 86.1133 30.6628C86.6445 30.3503 87.1094 29.9362 87.5078 29.4206L88.832 30.4518C87.7695 32.0846 86.1758 32.901 84.0508 32.901ZM83.7812 21.5339C82.9062 21.5339 82.1719 21.8542 81.5781 22.4948C80.9844 23.1276 80.6172 24.0182 80.4766 25.1667H86.8281V25.0026C86.7656 23.901 86.4688 23.0495 85.9375 22.4479C85.4062 21.8385 84.6875 21.5339 83.7812 21.5339ZM96.6016 31.1315C97.375 31.1315 98.0508 30.8971 98.6289 30.4284C99.207 29.9596 99.5273 29.3737 99.5898 28.6706H101.641C101.602 29.3971 101.352 30.0885 100.891 30.7448C100.43 31.401 99.8125 31.9245 99.0391 32.3151C98.2734 32.7057 97.4609 32.901 96.6016 32.901C94.875 32.901 93.5 32.3268 92.4766 31.1784C91.4609 30.0221 90.9531 28.444 90.9531 26.444V26.0807C90.9531 24.8464 91.1797 23.7487 91.6328 22.7878C92.0859 21.8268 92.7344 21.0807 93.5781 20.5495C94.4297 20.0182 95.4336 19.7526 96.5898 19.7526C98.0117 19.7526 99.1914 20.1784 100.129 21.03C101.074 21.8815 101.578 22.987 101.641 24.3464H99.5898C99.5273 23.526 99.2148 22.8542 98.6523 22.3307C98.0977 21.7995 97.4102 21.5339 96.5898 21.5339C95.4883 21.5339 94.6328 21.9323 94.0234 22.7292C93.4219 23.5182 93.1211 24.6628 93.1211 26.1628V26.5729C93.1211 28.0339 93.4219 29.1589 94.0234 29.9479C94.625 30.737 95.4844 31.1315 96.6016 31.1315ZM106.246 21.5221C107.207 20.3425 108.457 19.7526 109.996 19.7526C112.676 19.7526 114.027 21.2643 114.051 24.2878V32.6667H111.883V24.276C111.875 23.362 111.664 22.6862 111.25 22.2487C110.844 21.8112 110.207 21.5925 109.34 21.5925C108.637 21.5925 108.02 21.78 107.488 22.155C106.957 22.53 106.543 23.0221 106.246 23.6315V32.6667H104.078V14.6667H106.246V21.5221ZM119.348 19.987L119.418 21.5807C120.387 20.362 121.652 19.7526 123.215 19.7526C125.895 19.7526 127.246 21.2643 127.27 24.2878V32.6667H125.102V24.276C125.094 23.362 124.883 22.6862 124.469 22.2487C124.062 21.8112 123.426 21.5925 122.559 21.5925C121.855 21.5925 121.238 21.78 120.707 22.155C120.176 22.53 119.762 23.0221 119.465 23.6315V32.6667H117.297V19.987H119.348ZM132.895 32.6667H130.727V19.987H132.895V32.6667ZM130.551 16.6237C130.551 16.2721 130.656 15.9753 130.867 15.7331C131.086 15.4909 131.406 15.3698 131.828 15.3698C132.25 15.3698 132.57 15.4909 132.789 15.7331C133.008 15.9753 133.117 16.2721 133.117 16.6237C133.117 16.9753 133.008 17.2682 132.789 17.5026C132.57 17.737 132.25 17.8542 131.828 17.8542C131.406 17.8542 131.086 17.737 130.867 17.5026C130.656 17.2682 130.551 16.9753 130.551 16.6237ZM141.461 31.1315C142.234 31.1315 142.91 30.8971 143.488 30.4284C144.066 29.9596 144.387 29.3737 144.449 28.6706H146.5C146.461 29.3971 146.211 30.0885 145.75 30.7448C145.289 31.401 144.672 31.9245 143.898 32.3151C143.133 32.7057 142.32 32.901 141.461 32.901C139.734 32.901 138.359 32.3268 137.336 31.1784C136.32 30.0221 135.812 28.444 135.812 26.444V26.0807C135.812 24.8464 136.039 23.7487 136.492 22.7878C136.945 21.8268 137.594 21.0807 138.438 20.5495C139.289 20.0182 140.293 19.7526 141.449 19.7526C142.871 19.7526 144.051 20.1784 144.988 21.03C145.934 21.8815 146.438 22.987 146.5 24.3464H144.449C144.387 23.526 144.074 22.8542 143.512 22.3307C142.957 21.7995 142.27 21.5339 141.449 21.5339C140.348 21.5339 139.492 21.9323 138.883 22.7292C138.281 23.5182 137.98 24.6628 137.98 26.1628V26.5729C137.98 28.0339 138.281 29.1589 138.883 29.9479C139.484 30.737 140.344 31.1315 141.461 31.1315ZM156.766 32.6667C156.641 32.4167 156.539 31.9714 156.461 31.3307C155.453 32.3776 154.25 32.901 152.852 32.901C151.602 32.901 150.574 32.5495 149.77 31.8464C148.973 31.1354 148.574 30.237 148.574 29.151C148.574 27.8307 149.074 26.8073 150.074 26.0807C151.082 25.3464 152.496 24.9792 154.316 24.9792H156.426V23.9831C156.426 23.2253 156.199 22.6237 155.746 22.1784C155.293 21.7253 154.625 21.4987 153.742 21.4987C152.969 21.4987 152.32 21.694 151.797 22.0846C151.273 22.4753 151.012 22.9479 151.012 23.5026H148.832C148.832 22.8698 149.055 22.2604 149.5 21.6745C149.953 21.0807 150.562 20.612 151.328 20.2682C152.102 19.9245 152.949 19.7526 153.871 19.7526C155.332 19.7526 156.477 20.1198 157.305 20.8542C158.133 21.5807 158.562 22.5846 158.594 23.8659V29.7018C158.594 30.8659 158.742 31.7917 159.039 32.4792V32.6667H156.766ZM153.168 31.0143C153.848 31.0143 154.492 30.8385 155.102 30.487C155.711 30.1354 156.152 29.6784 156.426 29.1159V26.5143H154.727C152.07 26.5143 150.742 27.2917 150.742 28.8464C150.742 29.526 150.969 30.0573 151.422 30.4401C151.875 30.8229 152.457 31.0143 153.168 31.0143ZM164.348 32.6667H162.18V14.6667H164.348V32.6667ZM179.148 25.0612C177.219 24.5065 175.812 23.8268 174.93 23.0221C174.055 22.2096 173.617 21.2096 173.617 20.0221C173.617 18.6784 174.152 17.569 175.223 16.694C176.301 15.8112 177.699 15.3698 179.418 15.3698C180.59 15.3698 181.633 15.5964 182.547 16.0495C183.469 16.5026 184.18 17.1276 184.68 17.9245C185.188 18.7214 185.441 19.5925 185.441 20.5378H183.18C183.18 19.5065 182.852 18.6979 182.195 18.112C181.539 17.5182 180.613 17.2214 179.418 17.2214C178.309 17.2214 177.441 17.4675 176.816 17.9596C176.199 18.444 175.891 19.1198 175.891 19.987C175.891 20.6823 176.184 21.2721 176.77 21.7565C177.363 22.2331 178.367 22.6706 179.781 23.069C181.203 23.4675 182.312 23.9089 183.109 24.3932C183.914 24.8698 184.508 25.4284 184.891 26.069C185.281 26.7096 185.477 27.4635 185.477 28.3307C185.477 29.7135 184.938 30.8229 183.859 31.6589C182.781 32.487 181.34 32.901 179.535 32.901C178.363 32.901 177.27 32.6784 176.254 32.2331C175.238 31.78 174.453 31.1628 173.898 30.3815C173.352 29.6003 173.078 28.7135 173.078 27.7214H175.34C175.34 28.7526 175.719 29.569 176.477 30.1706C177.242 30.7643 178.262 31.0612 179.535 31.0612C180.723 31.0612 181.633 30.819 182.266 30.3346C182.898 29.8503 183.215 29.1901 183.215 28.3542C183.215 27.5182 182.922 26.8737 182.336 26.4206C181.75 25.9596 180.688 25.5065 179.148 25.0612ZM195.859 31.4128C195.016 32.405 193.777 32.901 192.145 32.901C190.793 32.901 189.762 32.5104 189.051 31.7292C188.348 30.9401 187.992 29.776 187.984 28.237V19.987H190.152V28.1784C190.152 30.1003 190.934 31.0612 192.496 31.0612C194.152 31.0612 195.254 30.444 195.801 29.2096V19.987H197.969V32.6667H195.906L195.859 31.4128ZM211.984 26.4675C211.984 28.3971 211.543 29.9518 210.66 31.1315C209.777 32.3112 208.582 32.901 207.074 32.901C205.535 32.901 204.324 32.4128 203.441 31.4362V37.5417H201.273V19.987H203.254L203.359 21.3932C204.242 20.2995 205.469 19.7526 207.039 19.7526C208.562 19.7526 209.766 20.3268 210.648 21.4753C211.539 22.6237 211.984 24.2214 211.984 26.2682V26.4675ZM209.816 26.2214C209.816 24.7917 209.512 23.6628 208.902 22.8346C208.293 22.0065 207.457 21.5925 206.395 21.5925C205.082 21.5925 204.098 22.1745 203.441 23.3385V29.3971C204.09 30.5534 205.082 31.1315 206.418 31.1315C207.457 31.1315 208.281 30.7214 208.891 29.901C209.508 29.0729 209.816 27.8464 209.816 26.2214ZM225.461 26.4675C225.461 28.3971 225.02 29.9518 224.137 31.1315C223.254 32.3112 222.059 32.901 220.551 32.901C219.012 32.901 217.801 32.4128 216.918 31.4362V37.5417H214.75V19.987H216.73L216.836 21.3932C217.719 20.2995 218.945 19.7526 220.516 19.7526C222.039 19.7526 223.242 20.3268 224.125 21.4753C225.016 22.6237 225.461 24.2214 225.461 26.2682V26.4675ZM223.293 26.2214C223.293 24.7917 222.988 23.6628 222.379 22.8346C221.77 22.0065 220.934 21.5925 219.871 21.5925C218.559 21.5925 217.574 22.1745 216.918 23.3385V29.3971C217.566 30.5534 218.559 31.1315 219.895 31.1315C220.934 31.1315 221.758 30.7214 222.367 29.901C222.984 29.0729 223.293 27.8464 223.293 26.2214ZM227.652 26.2096C227.652 24.9675 227.895 23.8503 228.379 22.8581C228.871 21.8659 229.551 21.1003 230.418 20.5612C231.293 20.0221 232.289 19.7526 233.406 19.7526C235.133 19.7526 236.527 20.3503 237.59 21.5456C238.66 22.7409 239.195 24.3307 239.195 26.3151V26.4675C239.195 27.7018 238.957 28.8112 238.48 29.7956C238.012 30.7721 237.336 31.5339 236.453 32.0807C235.578 32.6276 234.57 32.901 233.43 32.901C231.711 32.901 230.316 32.3034 229.246 31.1081C228.184 29.9128 227.652 28.3307 227.652 26.362V26.2096ZM229.832 26.4675C229.832 27.8737 230.156 29.0026 230.805 29.8542C231.461 30.7057 232.336 31.1315 233.43 31.1315C234.531 31.1315 235.406 30.7018 236.055 29.8425C236.703 28.9753 237.027 27.7643 237.027 26.2096C237.027 24.819 236.695 23.694 236.031 22.8346C235.375 21.9675 234.5 21.5339 233.406 21.5339C232.336 21.5339 231.473 21.9596 230.816 22.8112C230.16 23.6628 229.832 24.8815 229.832 26.4675ZM248.043 21.9323C247.715 21.8776 247.359 21.8503 246.977 21.8503C245.555 21.8503 244.59 22.4557 244.082 23.6667V32.6667H241.914V19.987H244.023L244.059 21.4518C244.77 20.319 245.777 19.7526 247.082 19.7526C247.504 19.7526 247.824 19.8073 248.043 19.9167V21.9323ZM253.574 16.9167V19.987H255.941V21.6628H253.574V29.526C253.574 30.0339 253.68 30.4167 253.891 30.6745C254.102 30.9245 254.461 31.0495 254.969 31.0495C255.219 31.0495 255.562 31.0026 256 30.9089V32.6667C255.43 32.8229 254.875 32.901 254.336 32.901C253.367 32.901 252.637 32.6081 252.145 32.0221C251.652 31.4362 251.406 30.6042 251.406 29.526V21.6628H249.098V19.987H251.406V16.9167H253.574Z" fill="white"/>
</svg>
