<svg width="270" height="59" viewBox="0 0 270 59" fill="none" xmlns="http://www.w3.org/2000/svg">
<rect width="265" height="59" fill="black"/>
<rect x="8" y="5.66667" width="50" height="50" rx="10" fill="white"/>
<path d="M85.7695 22.4557H80.2852V37.6667H78.0469V22.4557H72.5742V20.6042H85.7695V22.4557ZM92.0508 37.901C90.332 37.901 88.9336 37.3385 87.8555 36.2135C86.7773 35.0807 86.2383 33.569 86.2383 31.6784V31.28C86.2383 30.0221 86.4766 28.901 86.9531 27.9167C87.4375 26.9245 88.1094 26.151 88.9688 25.5964C89.8359 25.0339 90.7734 24.7526 91.7812 24.7526C93.4297 24.7526 94.7109 25.2956 95.625 26.3815C96.5391 27.4675 96.9961 29.0221 96.9961 31.0456V31.9479H88.4062C88.4375 33.1979 88.8008 34.2096 89.4961 34.9831C90.1992 35.7487 91.0898 36.1315 92.168 36.1315C92.9336 36.1315 93.582 35.9753 94.1133 35.6628C94.6445 35.3503 95.1094 34.9362 95.5078 34.4206L96.832 35.4518C95.7695 37.0846 94.1758 37.901 92.0508 37.901ZM91.7812 26.5339C90.9062 26.5339 90.1719 26.8542 89.5781 27.4948C88.9844 28.1276 88.6172 29.0182 88.4766 30.1667H94.8281V30.0026C94.7656 28.901 94.4688 28.0495 93.9375 27.4479C93.4062 26.8385 92.6875 26.5339 91.7812 26.5339ZM104.602 36.1315C105.375 36.1315 106.051 35.8971 106.629 35.4284C107.207 34.9596 107.527 34.3737 107.59 33.6706H109.641C109.602 34.3971 109.352 35.0885 108.891 35.7448C108.43 36.401 107.812 36.9245 107.039 37.3151C106.273 37.7057 105.461 37.901 104.602 37.901C102.875 37.901 101.5 37.3268 100.477 36.1784C99.4609 35.0221 98.9531 33.444 98.9531 31.444V31.0807C98.9531 29.8464 99.1797 28.7487 99.6328 27.7878C100.086 26.8268 100.734 26.0807 101.578 25.5495C102.43 25.0182 103.434 24.7526 104.59 24.7526C106.012 24.7526 107.191 25.1784 108.129 26.03C109.074 26.8815 109.578 27.987 109.641 29.3464H107.59C107.527 28.526 107.215 27.8542 106.652 27.3307C106.098 26.7995 105.41 26.5339 104.59 26.5339C103.488 26.5339 102.633 26.9323 102.023 27.7292C101.422 28.5182 101.121 29.6628 101.121 31.1628V31.5729C101.121 33.0339 101.422 34.1589 102.023 34.9479C102.625 35.737 103.484 36.1315 104.602 36.1315ZM114.246 26.5221C115.207 25.3425 116.457 24.7526 117.996 24.7526C120.676 24.7526 122.027 26.2643 122.051 29.2878V37.6667H119.883V29.276C119.875 28.362 119.664 27.6862 119.25 27.2487C118.844 26.8112 118.207 26.5925 117.34 26.5925C116.637 26.5925 116.02 26.78 115.488 27.155C114.957 27.53 114.543 28.0221 114.246 28.6315V37.6667H112.078V19.6667H114.246V26.5221ZM127.348 24.987L127.418 26.5807C128.387 25.362 129.652 24.7526 131.215 24.7526C133.895 24.7526 135.246 26.2643 135.27 29.2878V37.6667H133.102V29.276C133.094 28.362 132.883 27.6862 132.469 27.2487C132.062 26.8112 131.426 26.5925 130.559 26.5925C129.855 26.5925 129.238 26.78 128.707 27.155C128.176 27.53 127.762 28.0221 127.465 28.6315V37.6667H125.297V24.987H127.348ZM140.895 37.6667H138.727V24.987H140.895V37.6667ZM138.551 21.6237C138.551 21.2721 138.656 20.9753 138.867 20.7331C139.086 20.4909 139.406 20.3698 139.828 20.3698C140.25 20.3698 140.57 20.4909 140.789 20.7331C141.008 20.9753 141.117 21.2721 141.117 21.6237C141.117 21.9753 141.008 22.2682 140.789 22.5026C140.57 22.737 140.25 22.8542 139.828 22.8542C139.406 22.8542 139.086 22.737 138.867 22.5026C138.656 22.2682 138.551 21.9753 138.551 21.6237ZM149.461 36.1315C150.234 36.1315 150.91 35.8971 151.488 35.4284C152.066 34.9596 152.387 34.3737 152.449 33.6706H154.5C154.461 34.3971 154.211 35.0885 153.75 35.7448C153.289 36.401 152.672 36.9245 151.898 37.3151C151.133 37.7057 150.32 37.901 149.461 37.901C147.734 37.901 146.359 37.3268 145.336 36.1784C144.32 35.0221 143.812 33.444 143.812 31.444V31.0807C143.812 29.8464 144.039 28.7487 144.492 27.7878C144.945 26.8268 145.594 26.0807 146.438 25.5495C147.289 25.0182 148.293 24.7526 149.449 24.7526C150.871 24.7526 152.051 25.1784 152.988 26.03C153.934 26.8815 154.438 27.987 154.5 29.3464H152.449C152.387 28.526 152.074 27.8542 151.512 27.3307C150.957 26.7995 150.27 26.5339 149.449 26.5339C148.348 26.5339 147.492 26.9323 146.883 27.7292C146.281 28.5182 145.98 29.6628 145.98 31.1628V31.5729C145.98 33.0339 146.281 34.1589 146.883 34.9479C147.484 35.737 148.344 36.1315 149.461 36.1315ZM164.766 37.6667C164.641 37.4167 164.539 36.9714 164.461 36.3307C163.453 37.3776 162.25 37.901 160.852 37.901C159.602 37.901 158.574 37.5495 157.77 36.8464C156.973 36.1354 156.574 35.237 156.574 34.151C156.574 32.8307 157.074 31.8073 158.074 31.0807C159.082 30.3464 160.496 29.9792 162.316 29.9792H164.426V28.9831C164.426 28.2253 164.199 27.6237 163.746 27.1784C163.293 26.7253 162.625 26.4987 161.742 26.4987C160.969 26.4987 160.32 26.694 159.797 27.0846C159.273 27.4753 159.012 27.9479 159.012 28.5026H156.832C156.832 27.8698 157.055 27.2604 157.5 26.6745C157.953 26.0807 158.562 25.612 159.328 25.2682C160.102 24.9245 160.949 24.7526 161.871 24.7526C163.332 24.7526 164.477 25.1198 165.305 25.8542C166.133 26.5807 166.562 27.5846 166.594 28.8659V34.7018C166.594 35.8659 166.742 36.7917 167.039 37.4792V37.6667H164.766ZM161.168 36.0143C161.848 36.0143 162.492 35.8385 163.102 35.487C163.711 35.1354 164.152 34.6784 164.426 34.1159V31.5143H162.727C160.07 31.5143 158.742 32.2917 158.742 33.8464C158.742 34.526 158.969 35.0573 159.422 35.4401C159.875 35.8229 160.457 36.0143 161.168 36.0143ZM172.348 37.6667H170.18V19.6667H172.348V37.6667ZM187.148 30.0612C185.219 29.5065 183.812 28.8268 182.93 28.0221C182.055 27.2096 181.617 26.2096 181.617 25.0221C181.617 23.6784 182.152 22.569 183.223 21.694C184.301 20.8112 185.699 20.3698 187.418 20.3698C188.59 20.3698 189.633 20.5964 190.547 21.0495C191.469 21.5026 192.18 22.1276 192.68 22.9245C193.188 23.7214 193.441 24.5925 193.441 25.5378H191.18C191.18 24.5065 190.852 23.6979 190.195 23.112C189.539 22.5182 188.613 22.2214 187.418 22.2214C186.309 22.2214 185.441 22.4675 184.816 22.9596C184.199 23.444 183.891 24.1198 183.891 24.987C183.891 25.6823 184.184 26.2721 184.77 26.7565C185.363 27.2331 186.367 27.6706 187.781 28.069C189.203 28.4675 190.312 28.9089 191.109 29.3932C191.914 29.8698 192.508 30.4284 192.891 31.069C193.281 31.7096 193.477 32.4635 193.477 33.3307C193.477 34.7135 192.938 35.8229 191.859 36.6589C190.781 37.487 189.34 37.901 187.535 37.901C186.363 37.901 185.27 37.6784 184.254 37.2331C183.238 36.78 182.453 36.1628 181.898 35.3815C181.352 34.6003 181.078 33.7135 181.078 32.7214H183.34C183.34 33.7526 183.719 34.569 184.477 35.1706C185.242 35.7643 186.262 36.0612 187.535 36.0612C188.723 36.0612 189.633 35.819 190.266 35.3346C190.898 34.8503 191.215 34.1901 191.215 33.3542C191.215 32.5182 190.922 31.8737 190.336 31.4206C189.75 30.9596 188.688 30.5065 187.148 30.0612ZM203.859 36.4128C203.016 37.405 201.777 37.901 200.145 37.901C198.793 37.901 197.762 37.5104 197.051 36.7292C196.348 35.9401 195.992 34.776 195.984 33.237V24.987H198.152V33.1784C198.152 35.1003 198.934 36.0612 200.496 36.0612C202.152 36.0612 203.254 35.444 203.801 34.2096V24.987H205.969V37.6667H203.906L203.859 36.4128ZM219.984 31.4675C219.984 33.3971 219.543 34.9518 218.66 36.1315C217.777 37.3112 216.582 37.901 215.074 37.901C213.535 37.901 212.324 37.4128 211.441 36.4362V42.5417H209.273V24.987H211.254L211.359 26.3932C212.242 25.2995 213.469 24.7526 215.039 24.7526C216.562 24.7526 217.766 25.3268 218.648 26.4753C219.539 27.6237 219.984 29.2214 219.984 31.2682V31.4675ZM217.816 31.2214C217.816 29.7917 217.512 28.6628 216.902 27.8346C216.293 27.0065 215.457 26.5925 214.395 26.5925C213.082 26.5925 212.098 27.1745 211.441 28.3385V34.3971C212.09 35.5534 213.082 36.1315 214.418 36.1315C215.457 36.1315 216.281 35.7214 216.891 34.901C217.508 34.0729 217.816 32.8464 217.816 31.2214ZM233.461 31.4675C233.461 33.3971 233.02 34.9518 232.137 36.1315C231.254 37.3112 230.059 37.901 228.551 37.901C227.012 37.901 225.801 37.4128 224.918 36.4362V42.5417H222.75V24.987H224.73L224.836 26.3932C225.719 25.2995 226.945 24.7526 228.516 24.7526C230.039 24.7526 231.242 25.3268 232.125 26.4753C233.016 27.6237 233.461 29.2214 233.461 31.2682V31.4675ZM231.293 31.2214C231.293 29.7917 230.988 28.6628 230.379 27.8346C229.77 27.0065 228.934 26.5925 227.871 26.5925C226.559 26.5925 225.574 27.1745 224.918 28.3385V34.3971C225.566 35.5534 226.559 36.1315 227.895 36.1315C228.934 36.1315 229.758 35.7214 230.367 34.901C230.984 34.0729 231.293 32.8464 231.293 31.2214ZM235.652 31.2096C235.652 29.9675 235.895 28.8503 236.379 27.8581C236.871 26.8659 237.551 26.1003 238.418 25.5612C239.293 25.0221 240.289 24.7526 241.406 24.7526C243.133 24.7526 244.527 25.3503 245.59 26.5456C246.66 27.7409 247.195 29.3307 247.195 31.3151V31.4675C247.195 32.7018 246.957 33.8112 246.48 34.7956C246.012 35.7721 245.336 36.5339 244.453 37.0807C243.578 37.6276 242.57 37.901 241.43 37.901C239.711 37.901 238.316 37.3034 237.246 36.1081C236.184 34.9128 235.652 33.3307 235.652 31.362V31.2096ZM237.832 31.4675C237.832 32.8737 238.156 34.0026 238.805 34.8542C239.461 35.7057 240.336 36.1315 241.43 36.1315C242.531 36.1315 243.406 35.7018 244.055 34.8425C244.703 33.9753 245.027 32.7643 245.027 31.2096C245.027 29.819 244.695 28.694 244.031 27.8346C243.375 26.9675 242.5 26.5339 241.406 26.5339C240.336 26.5339 239.473 26.9596 238.816 27.8112C238.16 28.6628 237.832 29.8815 237.832 31.4675ZM256.043 26.9323C255.715 26.8776 255.359 26.8503 254.977 26.8503C253.555 26.8503 252.59 27.4557 252.082 28.6667V37.6667H249.914V24.987H252.023L252.059 26.4518C252.77 25.319 253.777 24.7526 255.082 24.7526C255.504 24.7526 255.824 24.8073 256.043 24.9167V26.9323ZM261.574 21.9167V24.987H263.941V26.6628H261.574V34.526C261.574 35.0339 261.68 35.4167 261.891 35.6745C262.102 35.9245 262.461 36.0495 262.969 36.0495C263.219 36.0495 263.562 36.0026 264 35.9089V37.6667C263.43 37.8229 262.875 37.901 262.336 37.901C261.367 37.901 260.637 37.6081 260.145 37.0221C259.652 36.4362 259.406 35.6042 259.406 34.526V26.6628H257.098V24.987H259.406V21.9167H261.574Z" fill="white"/>
<path d="M32.5386 23.2249H27.0542V38.4359H24.8159V23.2249H19.3433V21.3734H32.5386V23.2249ZM39.9097 30.8304C37.98 30.2757 36.5737 29.596 35.6909 28.7913C34.8159 27.9788 34.3784 26.9788 34.3784 25.7913C34.3784 24.4476 34.9136 23.3382 35.9839 22.4632C37.062 21.5804 38.4604 21.139 40.1792 21.139C41.3511 21.139 42.394 21.3655 43.3081 21.8187C44.23 22.2718 44.9409 22.8968 45.4409 23.6937C45.9487 24.4905 46.2026 25.3616 46.2026 26.3069H43.9409C43.9409 25.2757 43.6128 24.4671 42.9565 23.8812C42.3003 23.2874 41.3745 22.9905 40.1792 22.9905C39.0698 22.9905 38.2026 23.2366 37.5776 23.7288C36.9604 24.2132 36.6519 24.889 36.6519 25.7562C36.6519 26.4515 36.9448 27.0413 37.5308 27.5257C38.1245 28.0023 39.1284 28.4398 40.5425 28.8382C41.9644 29.2366 43.0737 29.678 43.8706 30.1624C44.6753 30.639 45.269 31.1976 45.6519 31.8382C46.0425 32.4788 46.2378 33.2327 46.2378 34.0999C46.2378 35.4827 45.6987 36.5921 44.6206 37.428C43.5425 38.2562 42.1011 38.6702 40.2964 38.6702C39.1245 38.6702 38.0308 38.4476 37.0151 38.0023C35.9995 37.5491 35.2144 36.9319 34.6597 36.1507C34.1128 35.3694 33.8394 34.4827 33.8394 33.4905H36.1011C36.1011 34.5218 36.48 35.3382 37.2378 35.9398C38.0034 36.5335 39.0229 36.8304 40.2964 36.8304C41.4839 36.8304 42.394 36.5882 43.0269 36.1038C43.6597 35.6194 43.9761 34.9593 43.9761 34.1234C43.9761 33.2874 43.6831 32.6429 43.0972 32.1898C42.5112 31.7288 41.4487 31.2757 39.9097 30.8304Z" fill="black"/>
</svg>
